<svg xmlns="http://www.w3.org/2000/svg" xmlns:xlink="http://www.w3.org/1999/xlink" width="24px" height="24px" viewBox="0 0 24 24" version="1.1">
<g id="surface1">
<path style=" stroke:none;fill-rule:nonzero;fill:currentColor;fill-opacity:1;" d="M 11.296875 19.25 C 11.085938 19.25 10.878906 19.175781 10.722656 19.042969 C 10.460938 18.835938 10.332031 18.496094 10.410156 18.15625 L 11.6875 11.632812 L 10.984375 12.027344 C 10.539062 12.261719 9.988281 12.132812 9.730469 11.6875 C 9.496094 11.246094 9.628906 10.695312 10.070312 10.433594 L 12.496094 9.050781 C 12.808594 8.867188 13.199219 8.894531 13.488281 9.105469 C 13.773438 9.3125 13.902344 9.679688 13.851562 10.015625 L 12.519531 16.800781 L 13.617188 16.332031 C 14.085938 16.121094 14.605469 16.332031 14.816406 16.800781 C 15.027344 17.269531 14.816406 17.792969 14.347656 18 L 11.660156 19.175781 C 11.558594 19.226562 11.425781 19.25 11.296875 19.25 Z M 13.878906 6.78125 C 14.113281 6.546875 14.269531 6.207031 14.269531 5.867188 C 14.269531 5.53125 14.136719 5.191406 13.878906 4.957031 C 13.644531 4.722656 13.304688 4.566406 12.964844 4.566406 C 12.628906 4.566406 12.285156 4.695312 12.050781 4.957031 C 11.816406 5.191406 11.660156 5.53125 11.660156 5.867188 C 11.660156 6.207031 11.792969 6.546875 12.050781 6.78125 C 12.285156 7.015625 12.628906 7.175781 12.964844 7.175781 C 13.304688 7.175781 13.644531 7.042969 13.878906 6.78125 Z M 24 12 C 24 5.371094 18.628906 0 12 0 C 5.371094 0 0 5.371094 0 12 C 0 18.628906 5.371094 24 12 24 C 18.628906 24 24 18.628906 24 12 Z M 21.914062 12 C 21.914062 17.480469 17.480469 21.914062 12 21.914062 C 6.519531 21.914062 2.085938 17.480469 2.085938 12 C 2.085938 6.519531 6.519531 2.085938 12 2.085938 C 17.480469 2.085938 21.914062 6.519531 21.914062 12 Z M 21.914062 12 "/>
</g>
</svg>
