<svg xmlns="http://www.w3.org/2000/svg" xmlns:xlink="http://www.w3.org/1999/xlink" width="24px" height="24px" viewBox="0 0 24 24" version="1.1">
<g id="surface1">
<path style=" stroke:none;fill-rule:nonzero;fill:currentColor;fill-opacity:1;" d="M 18.445312 16.773438 C 18.914062 17.242188 18.914062 17.972656 18.445312 18.445312 C 18.207031 18.679688 17.921875 18.78125 17.609375 18.78125 C 17.296875 18.78125 17.007812 18.679688 16.773438 18.445312 L 12 13.667969 L 7.226562 18.445312 C 6.992188 18.679688 6.703125 18.78125 6.390625 18.78125 C 6.078125 18.78125 5.792969 18.679688 5.554688 18.445312 C 5.085938 17.972656 5.085938 17.242188 5.554688 16.773438 L 10.332031 12 L 5.554688 7.226562 C 5.085938 6.757812 5.085938 6.027344 5.554688 5.554688 C 6.027344 5.085938 6.757812 5.085938 7.226562 5.554688 L 12 10.332031 L 16.773438 5.554688 C 17.242188 5.085938 17.972656 5.085938 18.445312 5.554688 C 18.914062 6.027344 18.914062 6.757812 18.445312 7.226562 L 13.667969 12 Z M 18.445312 16.773438 "/>
</g>
</svg>
