<?xml version="1.0" encoding="UTF-8"?>
<svg xmlns="http://www.w3.org/2000/svg" xmlns:xlink="http://www.w3.org/1999/xlink" width="24px" height="24px" viewBox="0 0 24 24" version="1.1">
<g id="surface1">
<path style=" stroke:none;fill-rule:nonzero;fill:currentColor;fill-opacity:1;" d="M 22.957031 12.78125 C 22.695312 12.78125 22.433594 12.679688 22.226562 12.496094 L 12 2.503906 L 1.773438 12.496094 C 1.355469 12.886719 0.703125 12.886719 0.285156 12.46875 C -0.105469 12.050781 -0.105469 11.398438 0.3125 10.984375 L 11.269531 0.285156 C 11.6875 -0.105469 12.3125 -0.105469 12.730469 0.285156 L 23.6875 10.984375 C 24.105469 11.371094 24.105469 12.050781 23.714844 12.46875 C 23.503906 12.679688 23.21875 12.78125 22.957031 12.78125 Z M 20.660156 22.957031 L 20.660156 12.753906 C 20.660156 12.183594 20.191406 11.714844 19.617188 11.714844 C 19.042969 11.714844 18.574219 12.183594 18.574219 12.753906 L 18.574219 21.914062 L 15.3125 21.914062 L 15.3125 16.332031 C 15.3125 15.574219 14.6875 14.949219 13.929688 14.949219 L 10.070312 14.949219 C 9.3125 14.949219 8.6875 15.574219 8.6875 16.332031 L 8.6875 21.914062 L 5.425781 21.914062 L 5.425781 12.753906 C 5.425781 12.183594 4.957031 11.714844 4.382812 11.714844 C 3.808594 11.714844 3.339844 12.183594 3.339844 12.753906 L 3.339844 22.957031 C 3.339844 23.53125 3.808594 24 4.382812 24 L 9.730469 24 C 10.304688 24 10.773438 23.53125 10.773438 22.957031 L 10.773438 17.035156 L 13.25 17.035156 L 13.25 22.957031 C 13.25 23.53125 13.722656 24 14.296875 24 L 19.644531 24 C 20.21875 24 20.660156 23.53125 20.660156 22.957031 Z M 20.660156 22.957031 "/>
</g>
</svg>
