<svg xmlns="http://www.w3.org/2000/svg" xmlns:xlink="http://www.w3.org/1999/xlink" width="24px" height="24px" viewBox="0 0 24 24" version="1.1">
<g id="surface1">
<path style=" stroke:none;fill-rule:nonzero;fill:currentColor;fill-opacity:1;" d="M 20.347656 6.132812 L 3.652344 6.132812 C 2.714844 6.132812 1.957031 5.371094 1.957031 4.433594 C 1.957031 3.496094 2.714844 2.738281 3.652344 2.738281 L 20.347656 2.738281 C 21.285156 2.738281 22.042969 3.496094 22.042969 4.433594 C 22.042969 5.371094 21.285156 6.132812 20.347656 6.132812 Z M 22.042969 12 C 22.042969 11.058594 21.285156 10.304688 20.347656 10.304688 L 3.652344 10.304688 C 2.714844 10.304688 1.957031 11.058594 1.957031 12 C 1.957031 12.941406 2.714844 13.695312 3.652344 13.695312 L 20.347656 13.695312 C 21.285156 13.695312 22.042969 12.941406 22.042969 12 Z M 22.042969 19.566406 C 22.042969 18.628906 21.285156 17.867188 20.347656 17.867188 L 3.652344 17.867188 C 2.714844 17.867188 1.957031 18.628906 1.957031 19.566406 C 1.957031 20.503906 2.714844 21.261719 3.652344 21.261719 L 20.347656 21.261719 C 21.285156 21.261719 22.042969 20.503906 22.042969 19.566406 Z M 22.042969 19.566406 "/>
</g>
</svg>
